<svg width="26" height="25" viewBox="0 0 26 25" fill="none" xmlns="http://www.w3.org/2000/svg">
<path d="M25.105 3.922C24.9634 3.68518 24.7299 3.51914 24.4605 3.46495L10.1633 0.018166C9.69207 -0.073174 9.22721 0.187119 9.06412 0.637338L3.61444 14.482L5.43379 15.145L10.5983 1.98095L23.0209 5.15096C22.2451 7.55611 20.3989 12.5761 18.6292 17.2503C17.0864 21.3285 16.1985 22.725 14.511 23.0102C14.5091 23.0082 14.5072 23.0063 14.5072 23.0033C11.0584 23.4868 11.1203 19.0901 11.1203 19.0901L0.105919 14.6409C-0.676798 19.6021 3.13529 20.7953 3.13529 20.7953L11.1994 24.4565C11.2013 24.4576 12.4602 25.0572 13.8284 24.9956C17.5189 24.9087 18.8158 22.2289 20.4408 17.9357C22.7885 11.7311 25.1714 4.77881 25.1948 4.70508C25.2788 4.44203 25.2456 4.15831 25.105 3.922Z" fill="#21BA19"/>
<path d="M18.5881 9.50517C18.6721 9.52813 18.759 9.54032 18.8449 9.54032C19.2697 9.54032 19.6583 9.25712 19.7774 8.82741C19.919 8.31127 19.6133 7.77808 19.0979 7.63744L14.9017 6.3423C14.392 6.20121 13.8528 6.50442 13.7122 7.02006C13.5715 7.53615 13.8743 8.06939 14.3918 8.21054L18.5881 9.50517Z" fill="#21BA19"/>
<path d="M12.0311 10.8987C11.8629 11.407 12.1359 11.9544 12.6428 12.1241L16.817 13.6158C16.9184 13.6495 17.018 13.6646 17.1184 13.6652C17.5256 13.6673 17.907 13.4105 18.0429 13.0039C18.2116 12.4969 17.939 11.9487 17.4301 11.7791L13.2575 10.2884C12.7476 10.1197 12.2012 10.3927 12.0311 10.8987Z" fill="#21BA19"/>
<path d="M11.6643 14.3301C11.1564 14.1602 10.6081 14.4375 10.442 14.9473C10.2751 15.4532 10.5534 16.0021 11.0612 16.1681L15.2441 17.6535C15.3449 17.6877 15.4453 17.7023 15.547 17.7023C15.9533 17.7023 16.3322 17.4436 16.466 17.0373C16.6329 16.5285 16.3557 15.9806 15.8478 15.8146L11.6643 14.3301Z" fill="#21BA19"/>
<path d="M11.5098 5.21304C12.1026 5.21304 12.5836 5.68082 12.5836 6.25702C12.5836 6.83369 12.1026 7.30095 11.5098 7.30095C10.9165 7.30095 10.4355 6.83364 10.4355 6.25702C10.4356 5.68082 10.9165 5.21304 11.5098 5.21304Z" fill="#21BA19"/>
<path d="M9.99025 9.09399C10.5836 9.09399 11.064 9.56131 11.064 10.1375C11.064 10.7132 10.5836 11.1804 9.99025 11.1804C9.397 11.1804 8.91602 10.7132 8.91602 10.1375C8.91602 9.56136 9.397 9.09399 9.99025 9.09399Z" fill="#21BA19"/>
<path d="M8.37014 13.098C8.96344 13.098 9.44438 13.5658 9.44438 14.143C9.44438 14.7191 8.96344 15.1859 8.37014 15.1859C7.77689 15.1859 7.2959 14.7192 7.2959 14.143C7.2959 13.5658 7.77689 13.098 8.37014 13.098Z" fill="#21BA19"/>
</svg>
