<svg width="25" height="20" viewBox="0 0 25 20" fill="none" xmlns="http://www.w3.org/2000/svg">
<path d="M24.0098 7.64517C23.3496 6.10112 22.4613 4.77135 21.3453 3.65506C20.2293 2.53896 18.8992 1.65081 17.3551 0.990517C15.811 0.330221 14.193 0 12.5 0C10.8072 0 9.18894 0.33027 7.64509 0.990517C6.10123 1.65106 4.77126 2.53896 3.65521 3.65506C2.53892 4.77135 1.65091 6.10112 0.99047 7.64517C0.330173 9.18921 0 10.8073 0 12.5001C0 14.9367 0.655655 17.1831 1.96706 19.2386C2.14366 19.5083 2.39482 19.6431 2.7204 19.6431H22.2797C22.6051 19.6431 22.8562 19.5083 23.0328 19.2386C24.3443 17.1739 25 14.9276 25 12.5001C25 10.8073 24.67 9.18921 24.0098 7.64517ZM11.2374 2.30901C11.5863 1.96017 12.0071 1.78572 12.5 1.78572C12.993 1.78572 13.4137 1.96022 13.7625 2.30901C14.1114 2.65765 14.2859 3.07856 14.2859 3.5715C14.2859 4.06444 14.1114 4.4852 13.7625 4.83399C13.4137 5.18278 12.993 5.35727 12.5 5.35727C12.0071 5.35727 11.5861 5.18278 11.2374 4.83399C10.8887 4.48515 10.7142 4.06444 10.7142 3.5715C10.7142 3.07856 10.8885 2.6577 11.2374 2.30901ZM4.83405 13.7627C4.48526 14.1113 4.06435 14.2862 3.57141 14.2862C3.07862 14.2862 2.6577 14.1113 2.30891 13.7627C1.96007 13.4142 1.78583 12.9931 1.78583 12.5001C1.78583 12.0072 1.96007 11.5865 2.30891 11.2376C2.65775 10.8888 3.07862 10.7144 3.57141 10.7144C4.06435 10.7144 4.48545 10.8888 4.83405 11.2376C5.18269 11.5865 5.35723 12.0072 5.35723 12.5001C5.35723 12.9931 5.18269 13.4138 4.83405 13.7627ZM7.51271 7.51265C7.16373 7.86139 6.74301 8.03593 6.25002 8.03593C5.75704 8.03593 5.33617 7.8612 4.98733 7.51265C4.63869 7.16401 4.4642 6.7431 4.4642 6.25016C4.4642 5.75722 4.6385 5.33646 4.98733 4.98767C5.33632 4.63883 5.75704 4.46439 6.25002 4.46439C6.74296 4.46439 7.16388 4.63888 7.51271 4.98767C7.86136 5.3365 8.03585 5.75722 8.03585 6.25016C8.03585 6.74295 7.86131 7.16381 7.51271 7.51265ZM15.4157 7.63129L14.0065 12.9605C14.4719 13.2765 14.8067 13.6996 15.0113 14.2299C15.2157 14.7601 15.2438 15.3042 15.0949 15.8622C14.9089 16.5784 14.495 17.1225 13.8531 17.4944C13.2113 17.8664 12.5325 17.9596 11.8162 17.7735C11.1002 17.5875 10.556 17.1737 10.1841 16.5319C9.81215 15.8899 9.71916 15.2112 9.90514 14.4948C10.0539 13.937 10.3469 13.479 10.784 13.1211C11.2211 12.7628 11.7186 12.5608 12.2766 12.5141L13.6857 7.18487C13.7508 6.9431 13.8903 6.75922 14.1041 6.63364C14.3182 6.50831 14.5412 6.47806 14.7738 6.5431C15.0066 6.60828 15.1855 6.74534 15.3109 6.95453C15.4368 7.16401 15.4715 7.38951 15.4157 7.63129ZM17.4875 7.51265C17.1386 7.16401 16.9641 6.7431 16.9641 6.25016C16.9641 5.75722 17.1386 5.33646 17.4875 4.98767C17.8363 4.63888 18.257 4.46439 18.75 4.46439C19.243 4.46439 19.6637 4.63888 20.0125 4.98767C20.3614 5.33646 20.5359 5.75722 20.5359 6.25016C20.5359 6.74295 20.3614 7.16386 20.0125 7.51265C19.6637 7.86139 19.243 8.03593 18.75 8.03593C18.257 8.03593 17.8363 7.86139 17.4875 7.51265ZM22.6911 13.7627C22.3422 14.1113 21.9215 14.2862 21.4286 14.2862C20.9356 14.2862 20.5149 14.1113 20.166 13.7627C19.8172 13.4142 19.6428 12.9931 19.6428 12.5001C19.6428 12.0072 19.8172 11.5865 20.166 11.2376C20.5149 10.8888 20.9356 10.7144 21.4286 10.7144C21.9215 10.7144 22.3422 10.8888 22.6911 11.2376C23.0399 11.5865 23.2141 12.0072 23.2141 12.5001C23.2141 12.9931 23.0399 13.4138 22.6911 13.7627Z" fill="#21BA19"/>
</svg>
