<svg width="25" height="25" viewBox="0 0 25 25" fill="none" xmlns="http://www.w3.org/2000/svg">
<g clip-path="url(#clip0)">
<path d="M6.09291 10.5908C6.22499 10.6678 6.3726 10.7063 6.5203 10.7063C6.668 10.7063 6.81562 10.6678 6.94778 10.5908C7.45361 10.2959 11.8897 7.62893 11.8897 4.81211C11.8897 3.08937 10.4948 1.68774 8.78028 1.68774C7.89077 1.68774 7.0875 2.06506 6.52022 2.66885C5.95293 2.06514 5.14958 1.68774 4.25998 1.68774C2.54539 1.68774 1.15039 3.08937 1.15039 4.81211C1.15039 7.62893 5.58699 10.2959 6.09291 10.5908ZM4.25998 3.38544C5.0383 3.38544 5.67145 4.02539 5.67145 4.81211C5.67145 5.28084 6.05157 5.66096 6.5203 5.66096C6.98904 5.66096 7.36915 5.28084 7.36915 4.81211C7.36915 4.02539 8.00214 3.38544 8.78028 3.38544C9.55868 3.38544 10.192 4.02539 10.192 4.81211C10.192 6.08818 8.09178 7.8599 6.5203 8.86257C4.94857 7.85999 2.84809 6.08827 2.84809 4.81211C2.84809 4.02539 3.4815 3.38544 4.25998 3.38544Z" fill="#21BA19"/>
<path d="M24.7515 14.8595L21.4499 11.5581C20.7948 10.903 19.6023 10.4092 18.6761 10.4092H10.0178C8.84767 10.4092 7.89568 11.3612 7.89568 12.5313V12.7859C7.89568 13.9561 8.84767 14.9081 10.0178 14.9081H12.2976L11.8458 15.3598C11.5373 15.6685 10.8375 15.9015 10.4052 15.84L3.122 14.7995C2.16373 14.6627 1.01134 14.9896 0.440993 15.5598C0.0866832 15.9141 -0.0647517 16.3861 0.025566 16.8547C0.131503 17.4046 0.551089 17.874 1.17695 18.1422L8.64046 21.3408C9.45765 21.6911 10.7241 21.7924 11.5863 21.5769L14.7182 20.7938C15.4509 20.6107 16.5655 20.2271 17.2558 19.9207L18.083 19.5535C18.3887 19.4178 18.9104 19.5268 19.1362 19.7733L22.1245 23.0361C22.292 23.2189 22.521 23.3116 22.7508 23.3116C22.9556 23.3116 23.161 23.2379 23.3239 23.0888C23.6696 22.7722 23.6932 22.2351 23.3766 21.8895L20.3882 18.6266C19.675 17.8476 18.3598 17.5732 17.3941 18.0018L16.5669 18.369C15.9726 18.6328 14.9374 18.9891 14.3065 19.1468L11.1745 19.9299C10.6732 20.0553 9.78429 19.984 9.30927 19.7803L1.90713 16.608C2.16696 16.5056 2.54886 16.4325 2.88212 16.4801L10.1653 17.5206C11.1237 17.658 12.3621 17.2445 13.0463 16.5602L14.0469 15.5597C14.744 14.8625 14.5909 14.2358 14.4927 13.9987C14.3945 13.7616 14.0596 13.2102 13.0737 13.2102H10.0178C9.78777 13.2102 9.59338 13.0158 9.59338 12.7858V12.5311C9.59338 12.3011 9.78777 12.1067 10.0178 12.1067H18.6761C19.1497 12.1067 19.9145 12.4234 20.2494 12.7584L23.5509 16.06C23.8825 16.3914 24.4198 16.3914 24.7515 16.06C25.0829 15.7285 25.0829 15.191 24.7515 14.8595Z" fill="#21BA19"/>
</g>
<defs>
<clipPath id="clip0">
<rect width="25" height="25" fill="white"/>
</clipPath>
</defs>
</svg>
