<svg width="25" height="25" viewBox="0 0 25 25" fill="none" xmlns="http://www.w3.org/2000/svg">
<path d="M23.5758 0H0.640068C0.288031 0 0 0.288031 0 0.640068C0 0.992106 0.288031 1.28014 0.640068 1.28014H2.02155V24.3439C2.02155 24.5786 2.14956 24.7973 2.35758 24.9093C2.56561 25.0213 2.8163 25.0107 3.01365 24.8773L5.79262 23.0265L8.58225 24.8827C8.7956 25.0267 9.0783 25.0267 9.29166 24.8827L12.0706 23.0318L14.8603 24.888C15.0736 25.032 15.3563 25.032 15.5697 24.888L18.3486 23.0371L21.1383 24.8933C21.2449 24.9627 21.3676 25 21.4903 25C21.5916 25 21.6983 24.9733 21.7943 24.9253C22.0023 24.8133 22.1304 24.5946 22.1304 24.3599L22.1197 1.29614H23.5758C23.9279 1.29614 24.2159 1.00811 24.2159 0.65607C24.2159 0.304032 23.9279 0 23.5758 0ZM20.8556 23.1491L18.706 21.7197C18.4926 21.5756 18.2099 21.5756 17.9966 21.7197L15.2176 23.5758L12.428 21.7197C12.2146 21.5756 11.9319 21.5756 11.7186 21.7197L8.93962 23.5705L6.14999 21.7197C5.93663 21.5756 5.65394 21.5756 5.44058 21.7197L3.30169 23.1438V1.2748H20.8502L20.8556 23.1491Z" fill="#21BA19"/>
<path d="M6.24554 10.2198H12.9503C13.3023 10.2198 13.5903 9.93174 13.5903 9.5797C13.5903 9.22767 13.3023 8.93964 12.9503 8.93964H6.24554C5.8935 8.93964 5.60547 9.22767 5.60547 9.5797C5.60547 9.93174 5.88817 10.2198 6.24554 10.2198Z" fill="#21BA19"/>
<path d="M6.24554 12.444H11.2701C11.6221 12.444 11.9101 12.156 11.9101 11.8039C11.9101 11.4519 11.6221 11.1639 11.2701 11.1639H6.24554C5.8935 11.1639 5.60547 11.4519 5.60547 11.8039C5.60547 12.156 5.88817 12.444 6.24554 12.444Z" fill="#21BA19"/>
<path d="M16.3002 10.2198H17.9751C18.3271 10.2198 18.6151 9.93174 18.6151 9.5797C18.6151 9.22767 18.3271 8.93964 17.9751 8.93964H16.3002C15.9482 8.93964 15.6602 9.22767 15.6602 9.5797C15.6602 9.93174 15.9429 10.2198 16.3002 10.2198Z" fill="#21BA19"/>
<path d="M16.3002 12.444H17.9751C18.3271 12.444 18.6151 12.156 18.6151 11.8039C18.6151 11.4519 18.3271 11.1639 17.9751 11.1639H16.3002C15.9482 11.1639 15.6602 11.4519 15.6602 11.8039C15.6602 12.156 15.9429 12.444 16.3002 12.444Z" fill="#21BA19"/>
<path d="M6.24554 5.08324H12.9503C13.3023 5.08324 13.5903 4.79521 13.5903 4.44317C13.5903 4.09113 13.3023 3.8031 12.9503 3.8031H6.24554C5.8935 3.8031 5.60547 4.09113 5.60547 4.44317C5.60547 4.79521 5.88817 5.08324 6.24554 5.08324Z" fill="#21BA19"/>
<path d="M6.24554 7.30211H11.2701C11.6221 7.30211 11.9101 7.01408 11.9101 6.66204C11.9101 6.31 11.6221 6.02197 11.2701 6.02197H6.24554C5.8935 6.02197 5.60547 6.31 5.60547 6.66204C5.60547 7.01408 5.88817 7.30211 6.24554 7.30211Z" fill="#21BA19"/>
<path d="M16.3002 5.08324H17.9751C18.3271 5.08324 18.6151 4.79521 18.6151 4.44317C18.6151 4.09113 18.3271 3.8031 17.9751 3.8031H16.3002C15.9482 3.8031 15.6602 4.09113 15.6602 4.44317C15.6602 4.79521 15.9429 5.08324 16.3002 5.08324Z" fill="#21BA19"/>
<path d="M16.3002 7.30211H17.9751C18.3271 7.30211 18.6151 7.01408 18.6151 6.66204C18.6151 6.31 18.3271 6.02197 17.9751 6.02197H16.3002C15.9482 6.02197 15.6602 6.31 15.6602 6.66204C15.6602 7.01408 15.9429 7.30211 16.3002 7.30211Z" fill="#21BA19"/>
<path d="M6.24554 15.4203H12.9503C13.3023 15.4203 13.5903 15.1323 13.5903 14.7803C13.5903 14.4282 13.3023 14.1402 12.9503 14.1402H6.24554C5.8935 14.1402 5.60547 14.4282 5.60547 14.7803C5.60547 15.1323 5.88817 15.4203 6.24554 15.4203Z" fill="#21BA19"/>
<path d="M6.24554 17.6392H11.2701C11.6221 17.6392 11.9101 17.3512 11.9101 16.9991C11.9101 16.6471 11.6221 16.3591 11.2701 16.3591H6.24554C5.8935 16.3591 5.60547 16.6471 5.60547 16.9991C5.60547 17.3512 5.88817 17.6392 6.24554 17.6392Z" fill="#21BA19"/>
<path d="M16.3002 15.4203H17.9751C18.3271 15.4203 18.6151 15.1323 18.6151 14.7803C18.6151 14.4282 18.3271 14.1402 17.9751 14.1402H16.3002C15.9482 14.1402 15.6602 14.4282 15.6602 14.7803C15.6602 15.1323 15.9429 15.4203 16.3002 15.4203Z" fill="#21BA19"/>
<path d="M16.3002 17.6392H17.9751C18.3271 17.6392 18.6151 17.3512 18.6151 16.9991C18.6151 16.6471 18.3271 16.3591 17.9751 16.3591H16.3002C15.9482 16.3591 15.6602 16.6471 15.6602 16.9991C15.6602 17.3512 15.9429 17.6392 16.3002 17.6392Z" fill="#21BA19"/>
</svg>
