<svg width="27" height="25" viewBox="0 0 27 25" fill="none" xmlns="http://www.w3.org/2000/svg">
<path d="M26.2175 18.7996C26.2886 18.4349 26.2652 18.0197 26.1453 17.5877C25.3588 14.7546 23.0054 8.95412 21.0497 6.56514C20.5365 5.93825 19.5479 5.99241 18.9747 6.56514C18.7226 6.81743 18.5824 7.13876 18.5526 7.46826C18.399 7.32625 18.2043 7.22819 17.9894 7.20013C17.9894 7.20013 13.0292 6.58205 12.9691 6.5899H10.7134C9.97841 6.5899 9.76331 7.01613 9.76331 7.54003V14.7811H8.10782V7.01594C8.10782 6.63177 7.79523 6.31918 7.41106 6.31918H0.696755C0.312589 6.31918 0 6.63177 0 7.01594C0 7.01594 0.00240697 17.9198 0.00240697 18.6251C0.00240697 19.4353 0.659193 20.0921 1.46933 20.0921H2.90882C2.83446 20.3949 2.79424 20.711 2.79424 21.0365C2.79424 23.222 4.57261 25 6.75846 25C8.94418 25 10.7224 23.222 10.7224 21.0365C10.7224 20.711 10.6821 20.3949 10.6078 20.0921H15.0444V21.064C15.0444 21.8324 15.6695 22.4575 16.4379 22.4575H16.4646C16.8362 22.4575 17.1851 22.3118 17.4469 22.0473C17.7088 21.7827 17.8509 21.4324 17.8471 21.0608L17.8372 20.0921H19.0979C19.0235 20.3949 18.9833 20.711 18.9833 21.0365C18.9833 23.222 20.7616 25 22.9475 25C25.1332 25 26.9115 23.222 26.9115 21.0365C26.9113 20.2072 26.6548 19.4368 26.2175 18.7996ZM22.9474 19.5405C23.7722 19.5405 24.4432 20.2116 24.4432 21.0365C24.4432 21.8613 23.7722 22.5324 22.9474 22.5324C22.1222 22.5324 21.4509 21.8613 21.4509 21.0365C21.4509 20.2116 22.1222 19.5405 22.9474 19.5405ZM8.25426 21.0365C8.25426 21.8613 7.58322 22.5324 6.75839 22.5324C5.93325 22.5324 5.26195 21.8613 5.26195 21.0365C5.26195 20.2116 5.93325 19.5405 6.75839 19.5405C7.58322 19.5405 8.25426 20.2116 8.25426 21.0365ZM17.785 14.9947C17.7772 14.228 17.1471 13.6045 16.3805 13.6045H14.0618V8.8695L15.1956 9.00878C15.2879 9.43285 15.6649 9.75057 16.1165 9.75057H20.0853L20.393 12.3136L17.7924 15.7184L17.785 14.9947Z" fill="#21BA19"/>
<path d="M11.5675 5.57416C13.1043 5.57416 14.3546 4.32387 14.3546 2.78696C14.3546 2.59155 14.3342 2.40083 14.2957 2.21663L14.9072 2.2046C15.2715 2.19737 15.6642 1.94376 15.8206 1.61457L16.0257 1.18296C16.1231 0.977927 16.1181 0.763833 16.0116 0.595535C15.9054 0.427364 15.7144 0.330895 15.4858 0.330895L12.8949 0.336913C12.5 0.122059 12.0477 0 11.5674 0C10.0306 0 8.78027 1.25023 8.78027 2.78708C8.78034 4.32387 10.0306 5.57416 11.5675 5.57416Z" fill="#21BA19"/>
</svg>
