<svg width="27" height="25" viewBox="0 0 27 25" fill="none" xmlns="http://www.w3.org/2000/svg">
<path d="M21.2927 13.1537H20.3577V12.2187C20.3577 11.7251 19.9575 11.3249 19.4639 11.3249C18.9703 11.3249 18.57 11.7251 18.57 12.2187V13.1537H17.6351C17.1415 13.1537 16.7412 13.554 16.7412 14.0475C16.7412 14.5411 17.1415 14.9414 17.6351 14.9414H18.57V15.8764C18.57 16.3699 18.9703 16.7702 19.4639 16.7702C19.9575 16.7702 20.3577 16.3699 20.3577 15.8764V14.9414H21.2927C21.7863 14.9414 22.1866 14.5411 22.1866 14.0475C22.1866 13.554 21.7863 13.1537 21.2927 13.1537Z" fill="#21BA19"/>
<path d="M3.98858 7.73756C3.75251 7.73756 3.52288 7.83321 3.35663 7.99946C3.18948 8.16572 3.09473 8.39633 3.09473 8.63142C3.09473 8.8665 3.18948 9.09712 3.35663 9.26337C3.52288 9.42954 3.7535 9.52527 3.98858 9.52527C4.22366 9.52527 4.45428 9.42963 4.62053 9.26337C4.7867 9.09712 4.88243 8.8665 4.88243 8.63142C4.88243 8.39633 4.78679 8.16572 4.62053 7.99946C4.45428 7.83321 4.22366 7.73756 3.98858 7.73756Z" fill="#21BA19"/>
<path d="M7.08331 7.73756C6.84822 7.73756 6.61761 7.83321 6.45135 7.99946C6.2851 8.16572 6.18945 8.39633 6.18945 8.63142C6.18945 8.8665 6.28501 9.09712 6.45135 9.26337C6.61761 9.42954 6.84822 9.52527 7.08331 9.52527C7.31839 9.52527 7.549 9.42963 7.71517 9.26337C7.88232 9.09712 7.97716 8.8665 7.97716 8.63142C7.97716 8.39633 7.88232 8.16572 7.71517 7.99946C7.549 7.83321 7.31928 7.73756 7.08331 7.73756Z" fill="#21BA19"/>
<path d="M3.98858 10.8321C3.7535 10.8321 3.52288 10.9277 3.35663 11.094C3.18948 11.2602 3.09473 11.4908 3.09473 11.7259C3.09473 11.9619 3.18948 12.1916 3.35663 12.3579C3.52288 12.5249 3.7535 12.6198 3.98858 12.6198C4.22366 12.6198 4.45428 12.5249 4.62053 12.3579C4.7867 12.1916 4.88243 11.9618 4.88243 11.7259C4.88243 11.4908 4.78679 11.2611 4.62053 11.094C4.45428 10.9277 4.22366 10.8321 3.98858 10.8321Z" fill="#21BA19"/>
<path d="M7.08331 10.8321C6.84822 10.8321 6.61761 10.9277 6.45135 11.094C6.2851 11.2602 6.18945 11.4908 6.18945 11.7259C6.18945 11.9619 6.28501 12.1916 6.45135 12.3579C6.61761 12.5249 6.84822 12.6198 7.08331 12.6198C7.31839 12.6198 7.549 12.5249 7.71517 12.3579C7.88232 12.1916 7.97716 11.9618 7.97716 11.7259C7.97716 11.4908 7.88232 11.2602 7.71517 11.094C7.549 10.9277 7.31839 10.8321 7.08331 10.8321Z" fill="#21BA19"/>
<path d="M3.98858 13.9275C3.75251 13.9275 3.52288 14.0231 3.35663 14.1894C3.19046 14.3556 3.09473 14.5855 3.09473 14.8213C3.09473 15.0564 3.19037 15.287 3.35663 15.4533C3.52288 15.6195 3.7535 15.7152 3.98858 15.7152C4.22366 15.7152 4.45338 15.6196 4.62053 15.4533C4.7867 15.287 4.88243 15.0564 4.88243 14.8213C4.88243 14.5863 4.78679 14.3556 4.62053 14.1894C4.45428 14.0231 4.22366 13.9275 3.98858 13.9275Z" fill="#21BA19"/>
<path d="M7.08331 13.9275C6.84822 13.9275 6.61761 14.0231 6.45135 14.1894C6.2851 14.3556 6.18945 14.5863 6.18945 14.8213C6.18945 15.0564 6.28501 15.287 6.45135 15.4533C6.61761 15.6195 6.84822 15.7152 7.08331 15.7152C7.31839 15.7152 7.549 15.6196 7.71517 15.4533C7.88143 15.287 7.97716 15.0564 7.97716 14.8213C7.97716 14.5863 7.88152 14.3556 7.71517 14.1894C7.549 14.0231 7.31839 13.9275 7.08331 13.9275Z" fill="#21BA19"/>
<path d="M3.98858 17.022C3.75251 17.022 3.52288 17.1176 3.35663 17.2839C3.18948 17.4502 3.09473 17.6808 3.09473 17.9159C3.09473 18.1518 3.18948 18.3816 3.35663 18.5478C3.52288 18.7149 3.7535 18.8105 3.98858 18.8105C4.22366 18.8105 4.45428 18.7149 4.62053 18.5478C4.7867 18.3816 4.88243 18.1509 4.88243 17.9159C4.88243 17.6808 4.78679 17.4511 4.62053 17.2839C4.45428 17.1176 4.22366 17.022 3.98858 17.022Z" fill="#21BA19"/>
<path d="M7.08331 17.022C6.84822 17.022 6.61761 17.1176 6.45135 17.2839C6.2851 17.4502 6.18945 17.6808 6.18945 17.9159C6.18945 18.1518 6.28501 18.3816 6.45135 18.5478C6.6185 18.7149 6.84822 18.8105 7.08331 18.8105C7.31839 18.8105 7.549 18.7149 7.71517 18.5478C7.88232 18.3816 7.97716 18.1517 7.97716 17.9159C7.97716 17.6808 7.88232 17.4502 7.71517 17.2839C7.549 17.1176 7.31928 17.022 7.08331 17.022Z" fill="#21BA19"/>
<path d="M3.98858 20.1174C3.7535 20.1174 3.52288 20.2131 3.35663 20.3793C3.19046 20.5456 3.09473 20.7762 3.09473 21.0113C3.09473 21.2464 3.19037 21.477 3.35663 21.6432C3.52288 21.8094 3.7526 21.9051 3.98858 21.9051C4.22366 21.9051 4.45428 21.8095 4.62053 21.6432C4.7867 21.477 4.88243 21.2464 4.88243 21.0113C4.88243 20.7753 4.78679 20.5456 4.62053 20.3793C4.45428 20.2131 4.22366 20.1174 3.98858 20.1174Z" fill="#21BA19"/>
<path d="M7.08331 20.1174C6.84822 20.1174 6.61761 20.2131 6.45135 20.3793C6.2851 20.5456 6.18945 20.7762 6.18945 21.0113C6.18945 21.2464 6.28501 21.477 6.45135 21.6432C6.61761 21.8094 6.84822 21.9051 7.08331 21.9051C7.31928 21.9051 7.549 21.8095 7.71517 21.6432C7.88232 21.477 7.97716 21.2464 7.97716 21.0113C7.97716 20.7762 7.88232 20.5456 7.71517 20.3793C7.549 20.2131 7.31839 20.1174 7.08331 20.1174Z" fill="#21BA19"/>
<path d="M24.2028 3.3515V0.893853C24.2028 0.400267 23.8025 0 23.3089 0H15.6185C15.1249 0 14.7246 0.400267 14.7246 0.893853V3.3515C13.3533 3.89184 12.3799 5.22868 12.3799 6.78962V21.3053C12.3799 23.3426 14.0373 25 16.0744 25H22.8528C24.8901 25 26.5475 23.3426 26.5475 21.3053V6.78962C26.5475 5.22877 25.574 3.89184 24.2028 3.3515ZM14.1676 10.2989H24.7597V17.7961H14.1676V10.2989ZM16.5123 1.78771H22.415V3.09497H16.5123V1.78771ZM16.0744 4.88267H22.8528C23.9043 4.88267 24.7597 5.73809 24.7597 6.78962V8.51118H14.1676V6.78962C14.1676 5.73818 15.023 4.88267 16.0744 4.88267ZM22.8528 23.2123H16.0744C15.023 23.2123 14.1676 22.3569 14.1676 21.3053V19.5838H24.7597V21.3053C24.7597 22.3568 23.9043 23.2123 22.8528 23.2123Z" fill="#21BA19"/>
<path d="M8.74108 4.6425H2.33144C1.0459 4.6425 0 5.6884 0 6.97403V22.6685C0 23.9541 1.0459 25 2.33144 25H8.74108C10.0267 25 11.0726 23.9541 11.0726 22.6685V6.97403C11.0726 5.6884 10.0267 4.6425 8.74108 4.6425ZM9.2849 22.6685C9.2849 22.9683 9.04097 23.2123 8.74108 23.2123H2.33144C2.03164 23.2123 1.78771 22.9684 1.78771 22.6685V6.97403C1.78771 6.67423 2.03164 6.43021 2.33144 6.43021H8.74108C9.04088 6.43021 9.2849 6.67414 9.2849 6.97403V22.6685Z" fill="#21BA19"/>
</svg>
