<svg width="26" height="25" viewBox="0 0 26 25" fill="none" xmlns="http://www.w3.org/2000/svg">
<path d="M22.1403 9.43169L22.0189 9.38842L21.5448 8.25673L21.5962 8.14045C23.0325 4.88313 22.9334 4.78596 22.6952 4.54981L20.7794 2.68089C20.7011 2.60318 20.5636 2.54853 20.445 2.54853C20.3372 2.54853 20.0108 2.54853 17.1813 3.83004L17.0678 3.88097L15.9005 3.41087L15.8536 3.29466C14.523 0 14.3868 0 14.0556 0H11.3501C11.0203 0 10.87 0 9.63621 3.30039L9.58977 3.42053L8.42848 3.89394L8.31744 3.84777C6.40229 3.04036 5.28406 2.63093 4.99256 2.63093C4.87428 2.63093 4.73626 2.68399 4.65759 2.76149L2.74002 4.63579C2.49676 4.87574 2.39587 4.97622 3.90732 8.16557L3.96287 8.28385L3.48802 9.4143L3.3718 9.45923C0 10.7623 0 10.8893 0 11.2287V13.8799C0 14.2202 0 14.3615 3.3785 15.5723L3.49926 15.615L3.97419 16.7421L3.92319 16.8573C2.48696 20.1161 2.57806 20.2043 2.82256 20.4475L4.73543 22.319C4.81562 22.3961 4.9544 22.4511 5.07275 22.4511C5.17985 22.4511 5.50558 22.4511 8.3369 21.1702L8.45028 21.1172L9.61841 21.5896L9.66381 21.7064C10.9952 25 11.132 25 11.4633 25H14.1697C14.5095 25 14.6504 25 15.8852 21.6974L15.9312 21.5772L17.0943 21.107L17.205 21.1521C19.1186 21.9618 20.2363 22.3704 20.5259 22.3704C20.6432 22.3704 20.7824 22.319 20.8624 22.2398L22.7831 20.3614C23.0247 20.1202 23.1254 20.0216 21.6112 16.8353L21.5549 16.7156L22.0289 15.59L22.1421 15.5457C25.5193 14.2358 25.5193 14.1081 25.5193 13.7683V11.1187C25.5192 10.7785 25.5192 10.638 22.1403 9.43169ZM12.7596 16.7998C10.3416 16.7998 8.37458 14.8703 8.37458 12.5005C8.37458 10.1306 10.3417 8.20366 12.7596 8.20366C15.1765 8.20366 17.1432 10.131 17.1432 12.5005C17.1433 14.8699 15.1766 16.7998 12.7596 16.7998Z" fill="#21BA19"/>
</svg>
