<svg width="34" height="25" viewBox="0 0 34 25" fill="none" xmlns="http://www.w3.org/2000/svg">
<path d="M21.8662 0.705852C21.7826 0.44817 21.5998 0.234342 21.3586 0.111358C21.117 -0.0117628 20.8369 -0.0336904 20.5791 0.0500698L16.3058 1.43872C15.7693 1.61305 15.4755 2.18929 15.65 2.72577L15.8636 3.38332L4.99366 11.3678L0.705812 12.7609C0.44813 12.8447 0.234303 13.0273 0.111319 13.2687C-0.0116659 13.51 -0.0337296 13.7904 0.0500307 14.0481L2.65532 22.0649C2.7956 22.4965 3.19601 22.7709 3.62653 22.7709C3.73126 22.7709 3.83763 22.7547 3.9425 22.7206L8.22966 21.3275L10.4324 21.3391C10.8747 23.4278 12.7324 25 14.9508 25C17.1522 25 18.9977 23.4513 19.4582 21.3866L21.7172 21.3984L21.9308 22.0561C22.0144 22.3138 22.1971 22.5276 22.4385 22.6506C22.5834 22.7244 22.7425 22.7619 22.9023 22.7619C23.0085 22.7619 23.1152 22.7453 23.2178 22.7119L27.4913 21.3234C28.0277 21.1491 28.3215 20.5728 28.1472 20.0364L21.8662 0.705852ZM4.28244 20.462L2.3087 14.3881L4.80979 13.5754L6.78327 19.6493L4.28244 20.462ZM14.9506 22.9571C13.8731 22.9571 12.9494 22.2915 12.5654 21.3504L17.3266 21.3754C16.9366 22.3036 16.0188 22.9571 14.9506 22.9571ZM8.81367 19.2876L7.73936 15.9811L6.66505 12.6747L16.5282 5.42993L19.553 14.7388L21.0519 19.3521L8.81367 19.2876ZM23.5579 20.4534L23.4325 20.0675C23.4324 20.0669 23.4322 20.066 23.4319 20.0652L20.7332 11.7596L17.9085 3.06585L20.239 2.30846L25.8884 19.6959L23.5579 20.4534Z" fill="#21BA19"/>
<path d="M25.3058 5.67127C25.4545 5.74699 25.6128 5.78281 25.7689 5.78281C26.1407 5.78281 26.4993 5.57907 26.6797 5.22496L28.5131 1.62803C28.7694 1.12547 28.5696 0.510277 28.067 0.254093C27.5645 -0.00195436 26.9493 0.197572 26.6931 0.70027L24.8597 4.29719C24.6034 4.79989 24.8032 5.41509 25.3058 5.67127Z" fill="#21BA19"/>
<path d="M32.9832 15.3846L29.3857 13.5521C28.883 13.2962 28.268 13.496 28.0119 13.9987C27.7558 14.5014 27.9558 15.1164 28.4584 15.3725L32.0559 17.205C32.2045 17.2806 32.3627 17.3164 32.5187 17.3164C32.8905 17.3164 33.2492 17.1125 33.4297 16.7584C33.6859 16.2558 33.4859 15.6408 32.9832 15.3846Z" fill="#21BA19"/>
<path d="M27.8169 9.45901C27.9572 9.89061 28.3576 10.165 28.7881 10.165C28.8928 10.165 28.9992 10.1488 29.1041 10.1148L32.9431 8.86724C33.4795 8.69291 33.7732 8.11666 33.5988 7.58005C33.4245 7.04344 32.8482 6.75035 32.3116 6.92427L28.4725 8.17182C27.9362 8.34629 27.6425 8.92253 27.8169 9.45901Z" fill="#21BA19"/>
</svg>
