<svg width="22" height="22" viewBox="0 0 22 22" fill="none" xmlns="http://www.w3.org/2000/svg">
<path d="M11.0003 4.125C6.41699 4.125 2.50283 6.97583 0.916992 11C2.50283 15.0242 6.41699 17.875 11.0003 17.875C15.5837 17.875 19.4978 15.0242 21.0837 11C19.4978 6.97583 15.5837 4.125 11.0003 4.125ZM11.0003 15.5833C8.47032 15.5833 6.41699 13.53 6.41699 11C6.41699 8.47 8.47032 6.41667 11.0003 6.41667C13.5303 6.41667 15.5837 8.47 15.5837 11C15.5837 13.53 13.5303 15.5833 11.0003 15.5833ZM11.0003 8.25C9.47866 8.25 8.25033 9.47833 8.25033 11C8.25033 12.5217 9.47866 13.75 11.0003 13.75C12.522 13.75 13.7503 12.5217 13.7503 11C13.7503 9.47833 12.522 8.25 11.0003 8.25Z" fill="#12334F"/>
</svg>
